<svg width="50" height="50" viewBox="0 0 50 50" fill="none" xmlns="http://www.w3.org/2000/svg">
<rect width="50" height="50" rx="25" fill="white"/>
<path d="M41.506 30.382C41.702 30.3822 41.8961 30.3438 42.0773 30.269C42.2584 30.1942 42.4231 30.0844 42.5618 29.946C42.7005 29.8075 42.8106 29.6431 42.8858 29.4621C42.961 29.2811 42.9998 29.087 43 28.891C43.0002 28.695 42.9618 28.5009 42.887 28.3198C42.8121 28.1386 42.7024 27.974 42.5639 27.8352C42.4255 27.6965 42.261 27.5864 42.08 27.5112C41.899 27.436 41.705 27.3972 41.509 27.397C41.1132 27.3966 40.7334 27.5535 40.4532 27.8331C40.173 28.1127 40.0154 28.4922 40.015 28.888C40.0146 29.2839 40.1715 29.6637 40.4511 29.9438C40.7307 30.224 41.1102 30.3816 41.506 30.382ZM40.012 24.8245H38.737C37.918 24.8245 37.477 25.4395 37.477 26.4625V30.1615H35.062V24.8245H34.036C33.2155 24.8245 32.776 25.4395 32.776 26.4625V30.1615H30.361V22.8505H32.776V23.9605C33.172 23.0995 33.715 22.8505 34.5205 22.8505H37.4785V23.9605C37.8745 23.0995 38.416 22.8505 39.2215 22.8505H40.012V24.8245ZM29.833 27.076H24.7945C24.9265 27.895 25.4395 28.363 26.3035 28.363C26.9485 28.363 27.4015 28.1005 27.5485 27.6325L29.686 28.2325C29.1595 29.5045 27.856 30.2785 26.3035 30.2785C23.6815 30.2785 22.48 28.246 22.48 26.506C22.48 24.796 23.5345 22.7485 26.155 22.7485C28.939 22.7485 29.8615 24.8245 29.8615 26.3605C29.8615 26.6965 29.8465 26.9155 29.8315 27.076H29.833ZM27.49 25.6585C27.43 25.0285 26.977 24.4435 26.1565 24.4435C25.3945 24.4435 24.9415 24.781 24.7945 25.6585H27.49ZM18.262 30.16H20.386L23.0365 22.849H20.6065L19.3165 27.1045L17.9995 22.849H15.58L18.262 30.16ZM8.362 30.16H10.765V24.823H13.051V30.16H15.4375V22.849H10.765V22.396C10.765 21.898 11.1175 21.592 11.674 21.592H13.051V19.618H11.275C9.532 19.618 8.3605 20.686 8.3605 22.2505V22.8505H7V24.8245H8.362V30.1615V30.16Z" fill="#1DBF73"/>
</svg>
